HIERARCHY
ROOT Hips
{
	OFFSET 0.00000 0.00000 0.00000
	CHANNELS 6 Xposition Yposition Zposition Zrotation Yrotation Xrotation 
	JOINT LHipJoint
	{
		OFFSET 0 0 0
		CHANNELS 3 Zrotation Yrotation Xrotation
		JOINT LeftUpLeg
		{
			OFFSET 1.36443 -1.53315 0.80540
			CHANNELS 3 Zrotation Yrotation Xrotation
			JOINT LeftLeg
			{
				OFFSET 2.27494 -6.25036 0.00000
				CHANNELS 3 Zrotation Yrotation Xrotation
				JOINT LeftFoot
				{
					OFFSET 2.17461 -5.97470 0.00000
					CHANNELS 3 Zrotation Yrotation Xrotation
					JOINT LeftToeBase
					{
						OFFSET 0.22144 -0.60841 2.08966
						CHANNELS 3 Zrotation Yrotation Xrotation
						End Site
						{
							OFFSET 0.00000 -0.00000 1.09206
						}
					}
				}
			}
		}
	}
	JOINT RHipJoint
	{
		OFFSET 0 0 0
		CHANNELS 3 Zrotation Yrotation Xrotation
		JOINT RightUpLeg
		{
			OFFSET -1.29957 -1.53315 0.80539
			CHANNELS 3 Zrotation Yrotation Xrotation
			JOINT RightLeg
			{
				OFFSET -2.23917 -6.15209 0.00000
				CHANNELS 3 Zrotation Yrotation Xrotation
				JOINT RightFoot
				{
					OFFSET -2.18029 -5.99030 0.00000
					CHANNELS 3 Zrotation Yrotation Xrotation
					JOINT RightToeBase
					{
						OFFSET -0.22354 -0.61416 1.89975
						CHANNELS 3 Zrotation Yrotation Xrotation
						End Site
						{
							OFFSET -0.00000 -0.00000 1.00221
						}
					}
				}
			}
		}
	}
	JOINT LowerBack
	{
		OFFSET 0 0 0
		CHANNELS 3 Zrotation Yrotation Xrotation
		JOINT Spine
		{
			OFFSET -0.04725 2.10352 -0.01215
			CHANNELS 3 Zrotation Yrotation Xrotation
			JOINT Spine1
			{
				OFFSET 0.04471 2.09612 -0.07192
				CHANNELS 3 Zrotation Yrotation Xrotation
				JOINT Neck
				{
					OFFSET 0 0 0
					CHANNELS 3 Zrotation Yrotation Xrotation
					JOINT Neck1
					{
						OFFSET -0.01586 1.38087 0.11506
						CHANNELS 3 Zrotation Yrotation Xrotation
						JOINT Head
						{
							OFFSET -0.01055 1.38869 -0.12115
							CHANNELS 3 Zrotation Yrotation Xrotation
							End Site
							{
								OFFSET -0.00310 1.39537 -0.05348
							}
						}
					}
				}
				JOINT LeftShoulder
				{
					OFFSET 0 0 0
					CHANNELS 3 Zrotation Yrotation Xrotation
					JOINT LeftArm
					{
						OFFSET 2.71932 0.62535 0.37316
						CHANNELS 3 Zrotation Yrotation Xrotation
						JOINT LeftForeArm
						{
							OFFSET 4.47366 -0.00000 0.00000
							CHANNELS 3 Zrotation Yrotation Xrotation
							JOINT LeftHand
							{
								OFFSET 3.19948 -0.00000 -0.00000
								CHANNELS 3 Zrotation Yrotation Xrotation
								JOINT LeftFingerBase
								{
									OFFSET 0 0 0
									CHANNELS 3 Zrotation Yrotation Xrotation
									JOINT LeftHandIndex1
									{
										OFFSET 0.49267 -0.00000 -0.00000
										CHANNELS 3 Zrotation Yrotation Xrotation
										End Site
										{
											OFFSET 0.39720 -0.00000 -0.00000
										}
									}
								}
								JOINT LThumb
								{
									OFFSET 0 0 0
									CHANNELS 3 Zrotation Yrotation Xrotation
									End Site
									{
										OFFSET 0.40327 -0.00000 0.40327
									}
								}
							}
						}
					}
				}
				JOINT RightShoulder
				{
					OFFSET 0 0 0
					CHANNELS 3 Zrotation Yrotation Xrotation
					JOINT RightArm
					{
						OFFSET -2.97334 0.70851 0.47631
						CHANNELS 3 Zrotation Yrotation Xrotation
						JOINT RightForeArm
						{
							OFFSET -4.32690 -0.00000 -0.00000
							CHANNELS 3 Zrotation Yrotation Xrotation
							JOINT RightHand
							{
								OFFSET -3.18960 -0.00000 0.00000
								CHANNELS 3 Zrotation Yrotation Xrotation
								JOINT RightFingerBase
								{
									OFFSET 0 0 0
									CHANNELS 3 Zrotation Yrotation Xrotation
									JOINT RightHandIndex1
									{
										OFFSET -0.46450 -0.00000 -0.00000
										CHANNELS 3 Zrotation Yrotation Xrotation
										End Site
										{
											OFFSET -0.37449 -0.00000 -0.00000
										}
									}
								}
								JOINT RThumb
								{
									OFFSET 0 0 0
									CHANNELS 3 Zrotation Yrotation Xrotation
									End Site
									{
										OFFSET -0.38021 -0.00000 0.38021
									}
								}
							}
						}
					}
				}
			}
		}
	}
}
MOTION
Frames: 7
Frame Time: .0083333
13.3722 15.7730 4.7454 -226.5930 54.9232 -41.8098 0.0000 0.0000 0.0000 -50.9370 25.4807 -145.9509 0.9856 6.3192 17.7135 158.0697 68.5561 6.3011 1.1841 6.9058 19.4366 0.0000 0.0000 0.0000 10.2118 -14.5401 2.4531 0.0000 0.0000 -0.0000 -3.6251 -4.2639 35.1487 -0.2842 3.4283 -9.4735 -20.0428 -1.3966 21.0829 -12.0378 -8.2495 3.7167 -0.1230 -4.0360 -6.8866 -0.5375 -2.3621 -12.0608 -21.8474 -2.8382 0.1102 -6.8054 -2.4383 1.8200 -0.0000 -0.0000 0.0000 -20.8282 20.8631 0.3856 36.0279 -45.5323 -15.5424 -0.0000 0.0000 -79.3254 0.8761 17.4298 0.2625 -7.1250 0.0000 -0.0000 -25.1510 45.7660 -0.5079 -0.0000 -0.0000 0.0000 -8.3622 3.4850 -81.0753 -17.0309 26.8985 -4.1013 0.0000 0.0000 1.2539 -98.7818 46.3311 -102.0555 7.1250 -0.0000 -0.0000 -161.6664 52.0175 -176.7421
13.3805 15.7895 4.7043 -225.2620 53.7025 -41.0864 0.0000 0.0000 0.0000 -49.7884 29.1506 -143.2297 0.9071 6.0692 16.9853 161.8700 65.3139 7.3387 1.3558 7.3708 20.8186 0.0000 0.0000 0.0000 9.2710 -13.2701 1.0032 0.0000 -0.0000 0.0000 -3.4954 -7.1929 34.0601 -0.2708 3.3475 -9.2477 -19.8060 -1.3257 21.3908 -11.9289 -8.1859 3.6559 -0.1105 -3.9756 -7.1441 -0.0028 -2.2280 -11.7849 -22.0445 -2.9294 -0.8916 -6.9390 -2.3992 1.4623 -0.0000 -0.0000 0.0000 -19.8854 20.7997 1.0198 32.9090 -43.2599 -13.3596 -0.0000 0.0000 -72.8364 -0.6729 17.0954 -0.1978 -7.1250 0.0000 -0.0000 -26.3430 45.2756 -0.1928 -0.0000 -0.0000 0.0000 -8.7048 4.4250 -80.9463 -17.1127 27.0061 -4.1384 0.0000 0.0000 0.4913 -99.0593 46.2035 -102.4565 7.1250 -0.0000 -0.0000 -161.6889 51.7419 -176.8726
13.3840 15.8201 4.6649 -224.2250 52.2612 -40.2606 0.0000 0.0000 0.0000 -49.3025 31.8052 -141.1720 0.8183 5.7722 16.1248 163.9191 62.9789 7.2869 1.4113 7.5137 21.2465 0.0000 0.0000 0.0000 8.5379 -11.8031 -1.0171 0.0000 0.0000 -0.0000 -3.4193 -9.2297 33.5068 -0.1827 2.7534 -7.5928 -19.2301 -1.3907 21.3721 -11.7760 -8.1477 3.4250 -0.2296 -3.9245 -7.4550 0.5977 -2.1292 -11.8667 -22.2727 -2.9693 -1.4203 -7.1132 -2.3949 1.3099 0.0000 -0.0000 0.0000 -18.8085 20.9965 1.8520 30.3998 -41.2337 -11.6723 -0.0000 0.0000 -66.3675 0.8720 16.6270 0.2495 -7.1250 0.0000 -0.0000 -24.8076 45.0382 -0.0250 0.0000 -0.0000 0.0000 -9.0767 5.3345 -80.4641 -17.1460 27.0499 -4.1535 0.0000 -0.0000 -0.4842 -99.3556 46.1646 -102.8658 7.1250 -0.0000 -0.0000 -161.8099 51.4696 -177.0186
13.3941 15.8509 4.6292 -223.2490 50.5793 -39.2468 0.0000 0.0000 0.0000 -51.0300 32.7889 -141.2816 0.7302 5.4597 15.2244 165.0059 63.0190 10.2790 1.4202 7.5365 21.3148 0.0000 0.0000 0.0000 7.8930 -10.0617 -3.5321 0.0000 0.0000 -0.0000 -3.2887 -11.2880 32.7821 -0.1770 2.7097 -7.4715 -18.5750 -1.4104 21.0524 -11.5232 -7.9200 3.1726 -0.3458 -3.7880 -7.6360 1.2252 -2.1048 -12.2444 -22.5062 -3.0705 -1.7547 -7.3097 -2.4572 1.2566 -0.0000 0.0000 0.0000 -17.5425 21.1095 3.0932 28.3321 -39.4202 -10.3339 -0.0000 0.0000 -60.3571 5.0190 16.1764 1.4016 -7.1250 0.0000 -0.0000 -21.0105 45.1141 -0.0620 -0.0000 0.0000 0.0000 -9.6232 6.0891 -80.3990 -17.0898 26.9760 -4.1280 0.0000 -0.0000 -1.1502 -99.3281 46.1430 -102.8330 7.1250 -0.0000 -0.0000 -161.7740 51.4886 -177.0037
13.4019 15.8810 4.5918 -222.0520 48.7832 -38.3065 0.0000 0.0000 0.0000 -54.8740 32.5312 -143.0983 0.6391 5.1145 14.2355 164.7645 65.4977 14.6548 1.4296 7.5603 21.3862 0.0000 0.0000 0.0000 6.9111 -7.0008 -9.4126 -0.1433 -2.4395 6.7218 -2.4377 -12.3022 28.1828 -0.3109 3.5845 -9.9105 -18.1456 -1.3021 20.8004 -11.1714 -7.5583 3.0311 -0.2716 -3.5898 -7.6912 1.5969 -2.0482 -12.3593 -22.5553 -3.1885 -2.5290 -7.3883 -2.4769 1.0317 -0.0000 -0.0000 0.0000 -16.2930 21.2001 4.4119 26.3388 -37.5414 -9.0933 -0.0000 0.0000 -53.9072 9.2461 15.1664 2.4387 -7.1250 0.0000 -0.0000 -16.9150 44.6470 0.1519 -0.0000 -0.0000 0.0000 -10.5382 6.9967 -81.0161 -16.9349 26.7719 -4.0580 0.0000 -0.0000 -1.2795 -98.8884 46.0907 -102.2474 7.1250 -0.0000 -0.0000 -161.4854 51.8658 -176.7784
13.3967 15.9176 4.5530 -220.9680 46.8287 -37.6400 0.0000 0.0000 0.0000 -58.5611 32.4673 -144.6726 0.5388 4.7032 13.0639 164.1665 68.1657 18.3640 1.3735 7.4167 20.9560 0.0000 0.0000 0.0000 5.3944 -3.8001 -15.7533 -0.6468 -5.1447 14.3218 -1.6772 -12.7167 23.5560 -0.3065 3.5596 -9.8409 -17.5448 -1.1801 20.8154 -10.7565 -7.2283 2.7574 -0.1917 -3.3812 -8.0519 1.7525 -1.9170 -12.1435 -22.4457 -3.2031 -3.4199 -7.3628 -2.4103 0.7333 -0.0000 -0.0000 0.0000 -14.9530 21.5756 5.9296 24.4783 -35.6659 -7.9837 -0.0000 0.0000 -46.9919 12.5142 13.3708 2.9383 -7.1250 0.0000 -0.0000 -13.4804 43.2511 0.5933 -0.0000 -0.0000 0.0000 -11.5799 7.9666 -81.0938 -16.7876 26.5769 -3.9918 0.0000 -0.0000 -1.6955 -98.9090 46.1262 -102.2683 7.1250 -0.0000 -0.0000 -161.5316 51.8559 -176.7915
13.3985 15.9490 4.5060 -220.3430 45.1733 -37.7112 0.0000 0.0000 0.0000 -63.6840 30.6998 -147.1965 0.4430 4.2707 11.8396 162.7893 73.2052 24.8023 1.1240 6.7343 18.9305 0.0000 0.0000 0.0000 4.2017 -3.4639 -21.5214 -1.1933 -6.9316 19.5129 -1.3308 -12.2109 21.0873 -0.3828 3.9734 -11.0019 -16.8897 -1.0425 21.8354 -10.2490 -7.1270 2.4216 0.0694 -3.2363 -9.0058 2.0938 -1.7369 -11.9978 -22.5821 -3.1235 -4.0553 -7.4555 -2.3281 0.5318 -0.0000 -0.0000 0.0000 -13.5558 22.1421 7.5034 22.9933 -34.0815 -7.1345 -0.0000 0.0000 -40.6221 15.2210 11.7095 3.1607 -7.1250 0.0000 -0.0000 -10.6874 41.8589 0.8387 -0.0000 -0.0000 0.0000 -12.7406 8.8256 -80.6192 -16.6518 26.3964 -3.9313 0.0000 -0.0000 -2.5237 -99.5138 46.1406 -103.0848 7.1250 -0.0000 -0.0000 -161.8711 51.3243 -177.0952
